<svg id="Capa_1" data-name="Capa 1" xmlns="http://www.w3.org/2000/svg" viewBox="0 0 555.61 122.74"><defs><style>.cls-1{fill:#ddd700;}.cls-2{fill:#fff;}</style></defs><title>logo</title><path class="cls-1" d="M23.66,109.57C27.2,112.22,32.35,115,38.1,115c10.46,0,19.15-7.67,20.33-17.28a.42.42,0,0,0-.15-.28v-.14A38.6,38.6,0,0,1,40,101.77c-20.77,0-38-16.3-38-35.95S19.24,29.87,40,29.87a40.82,40.82,0,0,1,19.3,4.74V31h19V93.27c0,21.17-18,38.73-40.8,38.73a40.93,40.93,0,0,1-26.38-9.75ZM40,83.11c10.17,0,18.12-7.53,18.12-17.28S50.18,48.55,40,48.55,21.89,56.07,21.89,65.83,29.84,83.11,40,83.11Z" transform="translate(-2 -9.26)"/><path class="cls-1" d="M128.26,29.88c20.92,0,37.86,16,37.86,35.8,0,20.07-16.94,36.09-37.86,36.09-21.21,0-38.16-16-38.16-36.09C90.1,45.9,107,29.88,128.26,29.88Zm0,52.81c9.87,0,17.83-7.53,17.83-17,0-9.32-8-16.85-17.83-16.85s-18,7.52-18,16.85S118.25,82.69,128.26,82.69Z" transform="translate(-2 -9.26)"/><path class="cls-1" d="M175.39,97.61A4.94,4.94,0,0,1,177,93.9a5.5,5.5,0,0,1,3.92-1.47,5.37,5.37,0,0,1,3.88,1.47,5,5,0,0,1,1.52,3.71,4.78,4.78,0,0,1-1.56,3.66,5.47,5.47,0,0,1-3.84,1.44,5.56,5.56,0,0,1-3.92-1.44A4.75,4.75,0,0,1,175.39,97.61Zm2.36-17.68-1.6-70.67h9.35L184,79.93Z" transform="translate(-2 -9.26)"/><path class="cls-2" d="M272.11,29.67a26.3,26.3,0,0,1,10.13,1.92,23.35,23.35,0,0,1,8.06,5.53A26.29,26.29,0,0,1,295.66,46a33.83,33.83,0,0,1,1.95,11.82v43.43H290V57.78q0-9.66-5.52-15.28a17.81,17.81,0,0,0-13.16-5.61,19,19,0,0,0-13.94,5.61q-5.65,5.63-5.65,15.28v43.43h-7.64V57.78q0-9.66-5.52-15.28a17.83,17.83,0,0,0-13.16-5.61,18.86,18.86,0,0,0-13.91,5.61q-5.61,5.63-5.6,15.28v43.43h-7.73V30.45h5.15l2.58,10.45h.83a20.93,20.93,0,0,1,4.56-5.66,25.35,25.35,0,0,1,6.15-3.84,20.84,20.84,0,0,1,8.8-1.73A23.52,23.52,0,0,1,237,31.91a26.32,26.32,0,0,1,7,5,31.1,31.1,0,0,1,5.15,7.22,32.56,32.56,0,0,1,5.07-7.22,28.27,28.27,0,0,1,7.06-5A23.09,23.09,0,0,1,272.11,29.67Z" transform="translate(-2 -9.26)"/><path class="cls-2" d="M381,65.79a37.73,37.73,0,0,1-2.73,14.49,36.08,36.08,0,0,1-7.43,11.47,33.65,33.65,0,0,1-11.05,7.54,35.86,35.86,0,0,1-27.35,0,33.26,33.26,0,0,1-11.09-7.54,35.52,35.52,0,0,1-7.39-11.42,38,38,0,0,1-2.7-14.53,37.82,37.82,0,0,1,2.7-14.45,35.3,35.3,0,0,1,7.39-11.42,33.44,33.44,0,0,1,11.09-7.55,35.86,35.86,0,0,1,27.35,0,33.63,33.63,0,0,1,11.05,7.55,36.08,36.08,0,0,1,7.43,11.42A37.37,37.37,0,0,1,381,65.79Zm-62.1,0a29.83,29.83,0,0,0,2.2,11.58A29.13,29.13,0,0,0,327,86.56a26.79,26.79,0,0,0,8.68,6,26.12,26.12,0,0,0,20.8,0,26.65,26.65,0,0,0,8.63-6A29.16,29.16,0,0,0,371,77.37a31.58,31.58,0,0,0,0-23.16,29,29,0,0,0-5.94-9.15,27.05,27.05,0,0,0-8.67-6,26.16,26.16,0,0,0-20.77,0,27.42,27.42,0,0,0-8.68,6A28.72,28.72,0,0,0,321,54.21,30,30,0,0,0,318.85,65.79Z" transform="translate(-2 -9.26)"/><path class="cls-2" d="M394.47,30.45,420,90.76l25.57-60.31H454l-30.64,70.76h-6.81L386,30.45Z" transform="translate(-2 -9.26)"/><path class="cls-2" d="M463.3,14.91a5.34,5.34,0,0,1,1.7-4.05,6,6,0,0,1,4.28-1.6,5.84,5.84,0,0,1,4.23,1.6,5.45,5.45,0,0,1,1.66,4.05A5.4,5.4,0,0,1,473.51,19a5.85,5.85,0,0,1-4.23,1.61A6,6,0,0,1,465,19,5.32,5.32,0,0,1,463.3,14.91Zm9.38,86.3H465V30.45h7.65Z" transform="translate(-2 -9.26)"/><path class="cls-2" d="M555.11,83.54a29,29,0,0,1-4.23,6.67,31.77,31.77,0,0,1-6.56,5.93,33.61,33.61,0,0,1-8.76,4.24A35.86,35.86,0,0,1,524.47,102a36.71,36.71,0,0,1-14.19-2.71A33.92,33.92,0,0,1,499,91.74a34.71,34.71,0,0,1-7.48-11.43,38,38,0,0,1-2.7-14.53,37.73,37.73,0,0,1,2.7-14.44,35.46,35.46,0,0,1,7.39-11.43,33.47,33.47,0,0,1,11.08-7.54,34.71,34.71,0,0,1,13.7-2.71,34.21,34.21,0,0,1,13.16,2.55,33.42,33.42,0,0,1,20.81,31.21,13.53,13.53,0,0,1-.17,2.24q-.16,1-.33,1.77c-.12.52-.22,1-.34,1.57H496.41a31.73,31.73,0,0,0,3,10.56,27.13,27.13,0,0,0,6,8.13,25.9,25.9,0,0,0,8.47,5.22,29.43,29.43,0,0,0,10.63,1.84A25.11,25.11,0,0,0,538,91a23.23,23.23,0,0,0,4.53-3.69c1.25-1.33,2.31-2.58,3.2-3.73h9.38ZM523.64,36.89a25.11,25.11,0,0,0-9.59,1.84,26.81,26.81,0,0,0-8.1,5.14,30.38,30.38,0,0,0-6.06,7.9,33.28,33.28,0,0,0-3.48,10H550A30.64,30.64,0,0,0,547,51.73a28.1,28.1,0,0,0-5.77-7.85,25.66,25.66,0,0,0-8-5.14A25.12,25.12,0,0,0,523.64,36.89Z" transform="translate(-2 -9.26)"/></svg>